<svg width="372" height="373" viewBox="0 0 372 373" fill="none" xmlns="http://www.w3.org/2000/svg">
<mask id="path-1-inside-1" fill="white">
<path d="M185.969 0.969091C161.547 25.3909 142.175 54.3838 128.958 86.2924C115.741 118.201 108.938 152.401 108.938 186.938C108.938 221.476 115.741 255.675 128.958 287.584C142.175 319.493 161.547 348.485 185.969 372.907L371.938 186.938L185.969 0.969091Z"/>
</mask>
<path d="M185.969 0.969091C161.547 25.3909 142.175 54.3838 128.958 86.2924C115.741 118.201 108.938 152.401 108.938 186.938C108.938 221.476 115.741 255.675 128.958 287.584C142.175 319.493 161.547 348.485 185.969 372.907L371.938 186.938L185.969 0.969091Z" fill="#1400FF" stroke="black" stroke-width="6" mask="url(#path-1-inside-1)"/>
</svg>
